<svg width="20" height="20" viewBox="0 0 20 20" fill="none" xmlns="http://www.w3.org/2000/svg">
<mask id="mask0_1_2" style="mask-type:luminance" maskUnits="userSpaceOnUse" x="0" y="0" width="20" height="20">
<path d="M19.6031 0.400024H0.403137V19.6H19.6031V0.400024Z" fill="white"/>
</mask>
<g mask="url(#mask0_1_2)">
<path fill-rule="evenodd" clip-rule="evenodd" d="M12.85 1.50512C12.1546 1.15775 11.2293 1.02504 10.4031 1.02502C9.57697 1.02501 8.6516 1.15769 7.95616 1.50515C7.44827 1.75891 6.94271 2.03143 6.50534 2.47254C6.05785 2.92385 5.74497 3.48388 5.46729 4.22116C4.86286 5.82598 5.00767 7.28576 5.42778 9.14217C5.67148 10.2191 6.23217 11.2423 6.92852 12.0077C7.07425 12.1679 7.23302 12.3242 7.40313 12.4707V12.472V12.4772V12.4825V12.4878V12.493V12.4983V12.5036V12.5089V12.5142V12.5196V12.5249V12.5302V12.5356V12.5409V12.5463V12.5516V12.557V12.5624V12.5677V12.5731V12.5785V12.5839V12.5893V12.5947V12.6002V12.6056V12.611V12.6164V12.6219V12.6273V12.6328V12.6383V12.6437V12.6492V12.6547V12.6602V12.6656V12.6711V12.6766V12.6822V12.6877V12.6932V12.6987V12.7042V12.7098V12.7153V12.7209V12.7264V12.732V12.7375V12.7431V12.7487V12.7542V12.7598V12.7654V12.771V12.7766V12.7822V12.7878V12.7934V12.799V12.8047V12.8103V12.8159V12.8215V12.8272V12.8328V12.8385V12.8441V12.8498V12.8554V12.8611V12.8668V12.8724V12.8781V12.8838V12.8895V12.8952V12.9009V12.9066V12.9123V12.918V12.9237V12.9294V12.9351V12.9408V12.9465V12.9523V12.958V12.9637V12.9694V12.9752V12.9809V12.9867V12.9924V12.9982V13.0039V13.0097V13.0154V13.0212V13.027V13.0327V13.0385V13.0443V13.0501V13.0559V13.0616V13.0674V13.0732V13.079V13.0848V13.0906V13.094C7.15613 13.2022 6.7853 13.305 6.28559 13.4299C6.21897 13.4465 6.15028 13.4635 6.08 13.4809C5.64795 13.5879 5.15494 13.7099 4.7119 13.8576C4.22047 14.0214 3.62123 14.2677 3.19602 14.6929C2.54843 15.3405 2.1127 16.246 1.84965 16.9036C1.71227 17.2471 1.60966 17.555 1.5411 17.7778C1.50669 17.8896 1.48053 17.9811 1.46257 18.0462C1.45359 18.0788 1.44663 18.1048 1.44171 18.1236L1.43583 18.1463L1.43403 18.1533L1.43342 18.1558L1.43308 18.1571C1.43303 18.1573 1.43299 18.1575 2.40313 18.4C3.37327 18.6426 3.37323 18.6427 3.37319 18.6429L3.37627 18.631C3.37916 18.62 3.38392 18.6021 3.39056 18.5781C3.40385 18.5299 3.42457 18.4573 3.45266 18.366C3.5091 18.1826 3.59398 17.928 3.70661 17.6464C3.94355 17.054 4.25783 16.4595 4.61024 16.1071C4.68503 16.0323 4.89829 15.9036 5.34436 15.755C5.70586 15.6345 6.11024 15.5341 6.54784 15.4256L6.77066 15.3702C7.25472 15.2492 7.81366 15.1045 8.25443 14.9041C8.47621 14.8033 8.73917 14.6579 8.95789 14.4392C9.19371 14.2033 9.40313 13.8527 9.40313 13.4V13.3942V13.3919C9.46924 13.397 9.53583 13.3997 9.60287 13.3997C10.3188 13.3999 10.5191 13.3998 10.6699 13.3997C10.7939 13.3996 10.8852 13.3996 11.2027 13.3997C11.2714 13.3997 11.3384 13.3948 11.4031 13.3861V13.3883V13.3942V13.4C11.4031 13.8527 11.6126 14.2033 11.8484 14.4392C12.0671 14.6579 12.33 14.8033 12.5518 14.9041C12.9926 15.1045 13.5515 15.2492 14.0356 15.3702L14.2584 15.4256C14.696 15.5341 15.1004 15.6345 15.4619 15.755C15.908 15.9036 16.1212 16.0323 16.196 16.1071C16.5484 16.4595 16.8627 17.054 17.0997 17.6464C17.2123 17.928 17.2972 18.1826 17.3536 18.366C17.3817 18.4573 17.4024 18.5299 17.4157 18.5781L17.4263 18.617L17.43 18.631L17.4329 18.6423C17.4328 18.6421 17.433 18.6426 18.4031 18.4C19.3733 18.1575 19.3732 18.1573 19.3732 18.1571L19.3728 18.1558L19.3722 18.1533L19.3704 18.1463L19.3645 18.1236C19.3596 18.1048 19.3527 18.0788 19.3437 18.0462C19.3257 17.9811 19.2996 17.8896 19.2652 17.7778C19.1966 17.555 19.094 17.2471 18.9566 16.9036C18.6936 16.246 18.2578 15.3405 17.6102 14.6929C17.185 14.2677 16.5858 14.0214 16.0944 13.8576C15.6513 13.7099 15.1591 13.5881 14.7271 13.4811L14.726 13.4809C14.6558 13.4635 14.5872 13.4465 14.5207 13.4299C14.021 13.305 13.6501 13.2022 13.4031 13.094V13.0906V13.0848V13.079V13.0732V13.0674V13.0616V13.0559V13.0501V13.0443V13.0385V13.0327V13.027V13.0212V13.0154V13.0097V13.0039V12.9982V12.9924V12.9867V12.9809V12.9752V12.9694V12.9637V12.958V12.9523V12.9465V12.9408V12.9351V12.9294V12.9237V12.918V12.9123V12.9066V12.9009V12.8952V12.8895V12.8838V12.8781V12.8724V12.8668V12.8611V12.8554V12.8498V12.8441V12.8385V12.8328V12.8272V12.8215V12.8159V12.8103V12.8047V12.799V12.7934V12.7878V12.7822V12.7766V12.771V12.7654V12.7598V12.7542V12.7487V12.7431V12.7375V12.732V12.7264V12.7209V12.7153V12.7098V12.7042V12.6987V12.6932V12.6877V12.6822V12.6766V12.6711V12.6656V12.6602V12.6547V12.6492V12.6437V12.6383V12.6328V12.6273V12.6219V12.6164V12.611V12.6056V12.6002V12.5947V12.5893V12.5839V12.5785V12.5731V12.5677V12.5624V12.557V12.5516V12.5463V12.5409V12.5356V12.5302V12.5249V12.5196V12.5142V12.5089V12.5036V12.4983V12.493V12.4878V12.4825V12.4772V12.472V12.4667V12.4614V12.4562V12.451V12.4458V12.4405V12.4353V12.4301V12.4249V12.4197V12.4146V12.4094V12.4042V12.3991V12.3939V12.3888V12.3837V12.3785V12.3734V12.3683V12.3632V12.3581V12.353V12.348V12.3429V12.3378V12.3328V12.3278V12.3227V12.3177V12.3127V12.3077V12.3027V12.2977V12.2927V12.2878V12.2828V12.2778V12.2729V12.268V12.263V12.2581V12.2532V12.2483V12.2434V12.2386V12.2337V12.2288V12.224V12.2191V12.2143V12.2095V12.2047C13.4665 12.1453 13.5295 12.0836 13.5919 12.0212C14.3091 11.3045 15.0625 10.2894 15.367 9.18787C15.8853 7.31269 15.936 5.80462 15.3388 4.22079C15.0609 3.48377 14.7481 2.92385 14.3008 2.4726C13.8635 2.03144 13.3581 1.75892 12.85 1.50512ZM8.85006 3.29427C9.15463 3.1421 9.72925 3.02501 10.4031 3.02502C11.0769 3.02503 11.6516 3.14213 11.9562 3.29431C12.4482 3.54005 12.6927 3.69128 12.8803 3.88059C13.058 4.05982 13.2452 4.33708 13.4674 4.92646C13.8705 5.99543 13.8839 7.04654 13.4393 8.65503C13.2623 9.29531 12.7657 10.0195 12.1782 10.6065C11.8926 10.892 11.6143 11.1158 11.3895 11.2604C11.2769 11.3329 11.1928 11.3757 11.1401 11.3975L11.1348 11.3997C10.8744 11.3996 10.7864 11.3996 10.6695 11.3997C10.516 11.3998 10.3127 11.3999 9.60336 11.3997C9.36066 11.3997 8.91061 11.2143 8.40786 10.6617C7.93094 10.1376 7.54164 9.42183 7.37845 8.70073C6.98478 6.96114 6.94424 5.97407 7.33894 4.92609C7.56082 4.33697 7.74794 4.05986 7.92556 3.88072C8.1133 3.69138 8.35796 3.54014 8.85006 3.29427Z" fill="white"/>
</g>
</svg>
